<svg width="512" height="512" viewBox="0 0 512 512" fill="none" xmlns="http://www.w3.org/2000/svg">
<rect width="512" height="512" rx="256" fill="white"/>
<g opacity="0.25">
<path d="M270.375 370.101C254.06 370.101 230.966 368.811 220.222 384.33C213.979 393.348 228.686 399.967 234.83 401.751C246.47 405.13 260.303 403.212 272.323 403.212C278.615 403.212 284.432 400.946 290.664 400.29C294.633 399.872 300.327 398.147 303.27 395.204C307.287 391.187 305.981 384.109 302.512 380.813C293.264 372.027 278.7 370.101 266.48 370.101" stroke="black" stroke-width="10" stroke-linecap="round"/>
<path d="M218.762 391.525C215.573 395.068 213.892 399.981 213.892 404.618C213.892 411.434 216.342 412.472 221.683 415.872C228.522 420.223 237.091 420.318 244.839 420.957C254.271 421.735 263.616 421.715 273.08 421.715C285.793 421.715 296.375 422.405 307.814 416.413C317.605 411.284 310.034 398.156 307.381 391.525" stroke="black" stroke-width="10" stroke-linecap="round"/>
<path d="M217.788 421.715C217.788 429.113 224.423 429.663 230.231 430.696C237.15 431.926 244.027 433.516 250.898 434.375" stroke="black" stroke-width="10" stroke-linecap="round"/>
<path d="M309.329 420.741C312.281 421.069 313.224 425.135 313.224 427.558C313.224 431.482 307.747 433.282 304.243 434.158C299.079 435.449 292.741 436.96 287.904 439.244C283.358 441.391 278.461 444.113 273.297 444.113" stroke="black" stroke-width="10" stroke-linecap="round"/>
<path d="M227.526 436.322C227.526 441.186 227.581 442.22 230.989 445.628C235.129 449.768 240.565 450.803 245.813 452.878C252.603 455.562 256.903 466.511 263.613 466.511C268.742 466.511 274.887 467.434 279.897 466.295C285.061 465.121 287.22 456.257 289.798 452.391C294.203 445.783 303.544 438.843 311.277 437.296" stroke="black" stroke-width="10" stroke-linecap="round"/>
<path d="M264.532 473.328V481.119" stroke="black" stroke-width="10" stroke-linecap="round"/>
<path d="M211.945 379.839C211.945 361.196 212.521 344.948 205.885 327.252C199.621 310.546 188.233 294.476 177.319 280.508C164.783 264.461 156.498 247.315 150.647 227.812C147.688 217.95 149.619 205.464 149.619 195.242C149.619 189.58 149.619 183.917 149.619 178.254" stroke="black" stroke-width="10" stroke-linecap="round"/>
<path d="M149.619 187.993C149.619 177.157 147.855 163.08 151.999 152.718C155.376 144.277 162.006 132.297 168.663 126.424C172.66 122.897 175.538 118.723 179.808 115.387C183.917 112.177 187.818 108.753 191.927 105.541C196.611 101.879 202.63 97.0745 208.049 94.666C213.666 92.1699 220.014 91.018 225.741 88.6066C251.39 77.8069 283.841 75.7554 310.357 84.2784C320.406 87.5083 329.031 94.181 336.705 101.375C343.698 107.931 352.716 113.814 358.021 121.771" stroke="black" stroke-width="10" stroke-linecap="round"/>
<path d="M358.021 121.771C362.306 124.628 364.194 131.877 366.353 136.379C368.33 140.502 370.409 144.804 372.142 149.039C376.94 160.768 379.446 173.256 379.446 185.937C379.446 197.373 381.147 210.102 377.498 221.049C374.589 229.775 371.452 238.281 367.381 246.423C363.844 253.498 362.607 261.778 358.995 268.821C354.722 277.154 346.775 284.751 340.708 291.761C335.119 298.22 328.17 302.663 322.422 308.749C318.706 312.684 311.277 320.527 311.277 326.278" stroke="black" stroke-width="10" stroke-linecap="round"/>
<path d="M311.277 326.278C310.182 338.318 303.486 349.087 303.486 361.336C303.486 367.805 300.211 384.473 306.407 388.604" stroke="black" stroke-width="10" stroke-linecap="round"/>
<path d="M248.951 381.787C249.27 383.225 254.387 386.978 255.768 388.063C257.96 389.786 260.742 392.805 263.558 390.552C266.257 388.393 271.894 389.578 275.19 389.578C277.098 389.578 283.333 388.514 279.086 385.682C275.965 383.602 276.695 382.293 272.756 383.951C270.053 385.089 267.056 384.709 264.099 384.709C259.508 384.709 255.878 386.435 253.82 390.552" stroke="black" stroke-width="4" stroke-linecap="round"/>
<path d="M260.637 385.682C259.372 372.4 253.546 359.727 249.925 346.945C247.998 340.146 246.176 332.338 245.272 325.304C244.796 321.602 245.298 317.866 245.001 314.159C244.733 310.809 243.327 307.734 243.054 304.313C242.621 298.908 239.957 293.913 239.266 288.731C238.61 283.81 239.212 278.448 239.212 273.474C239.212 265.751 239.121 259.158 241.214 251.833C242.349 247.86 251.133 249.405 253.874 250.318C257.507 251.529 266.586 262.439 262.368 266.657C257.785 271.24 258.689 251.86 258.689 250.264C258.689 233.686 272.058 252.472 275.028 258.65C276.021 260.715 277.251 266.028 276.002 268.389C274.4 271.414 270.447 265.391 270.375 263.952C270.194 260.331 270.708 257.921 273.297 255.188C275.661 252.692 278.432 250.566 279.194 254.755C280.024 259.319 281.088 263.075 281.088 267.793C281.088 269.482 280.156 275.429 280.114 274.664C279.743 267.997 281.487 261.485 287.472 257.676C294.318 253.32 297.643 265.446 297.643 269.795C297.643 275.638 297.643 281.481 297.643 287.324C297.643 294.053 292.789 301.484 290.826 307.991C286.353 322.822 277.405 336.625 276.164 352.139C275.323 362.649 272.323 372.96 272.323 383.735" stroke="black" stroke-width="4" stroke-linecap="round"/>
<path d="M358.995 249.345C358.092 254.309 352.281 260.244 349.257 264.277C344.036 271.238 335.7 275.469 329.996 282.022C325.338 287.374 317.251 293.805 314.198 300.201C309.535 309.972 305.371 320.207 304.46 331.147" stroke="black" stroke-width="4" stroke-linecap="round"/>
<path d="M158.383 202.6C158.383 218.531 161.53 231.829 170.286 245.449C175.363 253.346 180.623 261.256 186.192 268.821C189.646 273.513 193.217 281.856 198.311 284.403" stroke="black" stroke-width="4" stroke-linecap="round"/>
<path d="M168.122 222.077C168.761 234.861 178.669 243.975 185.651 253.673C191.495 261.79 199.363 272.374 208.049 277.586" stroke="black" stroke-width="4" stroke-linecap="round"/>
<path d="M196.363 277.586C200.584 281.807 205.019 287.144 208.049 292.194" stroke="black" stroke-width="4" stroke-linecap="round"/>
<path d="M200.259 290.246C202.822 294.091 205.618 297.825 208.536 301.391C210.212 303.439 213.064 303.34 213.892 305.827" stroke="black" stroke-width="4" stroke-linecap="round"/>
<path d="M208.685 102.107C203.109 110.47 199.627 120.679 196.267 130.086C193.305 138.378 193.123 146.471 193.123 155.157" stroke="black" stroke-width="4" stroke-linecap="round"/>
<path d="M154.927 165.767C162.292 165.628 169.647 164.577 177.051 164.313C181.396 164.158 185.706 163.645 190.058 163.645C193.017 163.645 196.015 164.044 198.782 162.937" stroke="black" stroke-width="4" stroke-linecap="round"/>
<path d="M194.538 150.205C192.539 151.264 191.584 153.214 189.587 154.292C187.759 155.279 185.692 155.886 183.928 156.964C182.483 157.848 176.931 165.041 175.597 164.745C173.615 164.305 180.909 152.273 182.12 150.952C183.324 149.639 185.095 148.479 186.718 147.769C189.101 146.726 183.352 148.817 182.671 149.105C177.193 151.418 171.411 156.838 166.991 160.815C165.944 161.758 164.348 164.274 162.747 164.274C160.177 164.274 168.383 155.017 168.76 154.607C176.118 146.58 186.478 142.704 194.145 135.037C196.355 132.828 197.421 131.923 194.224 134.801C187.256 141.072 178.897 145.82 171.746 151.935C169.203 154.109 167.436 157.233 164.83 159.244C161.782 161.595 163.359 157.776 164.241 156.454C170.469 147.111 180.841 139.297 190.058 133.229C191.192 132.483 197.803 128.455 192.966 131.107C187.597 134.052 181.908 136.387 176.894 139.949C169.75 145.025 163.959 152.049 156.656 156.964C155.767 157.563 154.495 157.972 153.827 158.851C153.778 158.916 153.248 160.318 152.962 159.951C151.629 158.237 158.618 150.472 159.604 149.105C166.029 140.193 175.5 133.507 183.378 125.999C189.726 119.948 197.395 116.434 204.794 112.049C207.737 110.305 212.979 106.351 216.465 106.351" stroke="black" stroke-width="4" stroke-linecap="round"/>
<path d="M157.049 174.255C156.903 178.346 155.111 182.152 154.574 186.24C154.138 189.55 153.513 192.84 153.513 196.182" stroke="black" stroke-width="4" stroke-linecap="round"/>
</g>
<path d="M260.666 365.259C244.351 365.259 221.257 363.97 210.513 379.488C204.27 388.506 218.977 395.125 225.121 396.909C236.761 400.289 250.593 398.37 262.614 398.37C268.905 398.37 274.723 396.104 280.954 395.448C284.924 395.031 290.618 393.305 293.56 390.363C297.578 386.345 296.272 379.268 292.803 375.972C283.555 367.186 268.99 365.259 256.771 365.259" stroke="black" stroke-width="10" stroke-linecap="round"/>
<path d="M209.052 386.684C205.864 390.227 204.183 395.14 204.183 399.777C204.183 406.592 206.632 407.631 211.974 411.03C218.813 415.382 227.381 415.477 235.13 416.116C244.561 416.893 253.907 416.873 263.371 416.873C276.083 416.873 286.665 417.563 298.105 411.571C307.896 406.442 300.324 393.315 297.672 386.684" stroke="black" stroke-width="10" stroke-linecap="round"/>
<path d="M208.078 416.873C208.078 424.271 214.714 424.821 220.522 425.854C227.44 427.084 234.318 428.674 241.189 429.533" stroke="black" stroke-width="10" stroke-linecap="round"/>
<path d="M299.62 415.899C302.572 416.227 303.515 420.294 303.515 422.716C303.515 426.64 298.037 428.441 294.534 429.317C289.369 430.608 283.032 432.118 278.195 434.402C273.649 436.549 268.751 439.271 263.587 439.271" stroke="black" stroke-width="10" stroke-linecap="round"/>
<path d="M217.817 431.481C217.817 436.345 217.871 437.378 221.279 440.786C225.419 444.926 230.855 445.961 236.103 448.036C242.894 450.721 247.194 461.67 253.903 461.67C259.033 461.67 265.178 462.592 270.188 461.453C275.351 460.28 277.511 451.416 280.089 447.549C284.493 440.942 293.835 434.001 301.567 432.454" stroke="black" stroke-width="10" stroke-linecap="round"/>
<path d="M254.823 468.487V476.277" stroke="black" stroke-width="10" stroke-linecap="round"/>
<path d="M202.235 374.998C202.235 356.354 202.812 340.106 196.176 322.41C189.911 305.705 178.523 289.635 167.61 275.666C155.074 259.619 146.788 242.473 140.937 222.97C137.979 213.108 139.91 200.622 139.91 190.401C139.91 184.738 139.91 179.075 139.91 173.413" stroke="black" stroke-width="10" stroke-linecap="round"/>
<path d="M139.91 183.151C139.91 172.316 138.145 158.238 142.29 147.876C145.666 139.436 152.297 127.456 158.954 121.583C162.951 118.055 165.829 113.882 170.099 110.546C174.207 107.336 178.109 103.911 182.218 100.699C186.902 97.037 192.921 92.233 198.34 89.8245C203.956 87.3283 210.304 86.1765 216.032 83.765C241.681 72.9653 274.131 70.9138 300.648 79.4368C310.696 82.6667 319.322 89.3394 326.995 96.5331C333.989 103.089 343.007 108.972 348.312 116.93" stroke="black" stroke-width="10" stroke-linecap="round"/>
<path d="M348.312 116.93C352.597 119.786 354.485 127.035 356.643 131.537C358.62 135.66 360.7 139.962 362.432 144.197C367.231 155.926 369.736 168.415 369.736 181.095C369.736 192.531 371.437 205.261 367.789 216.207C364.88 224.933 361.742 233.439 357.671 241.581C354.134 248.656 352.897 256.937 349.286 263.98C345.013 272.312 337.065 279.909 330.999 286.919C325.409 293.378 318.46 297.821 312.712 303.907C308.996 307.842 301.567 315.686 301.567 321.437" stroke="black" stroke-width="10" stroke-linecap="round"/>
<path d="M301.567 321.436C300.473 333.476 293.777 344.245 293.777 356.495C293.777 362.963 290.501 379.631 296.698 383.762" stroke="black" stroke-width="10" stroke-linecap="round"/>
<path d="M239.241 376.945C239.561 378.383 244.678 382.137 246.058 383.221C248.251 384.944 251.033 387.963 253.849 385.71C256.547 383.552 262.185 384.736 265.481 384.736C267.389 384.736 273.623 383.672 269.376 380.841C266.256 378.761 266.986 377.451 263.046 379.11C260.343 380.248 257.347 379.867 254.39 379.867C249.799 379.867 246.169 381.593 244.111 385.71" stroke="black" stroke-width="4" stroke-linecap="round"/>
<path d="M250.928 380.841C249.663 367.558 243.837 354.885 240.215 342.104C238.289 335.305 236.467 327.496 235.562 320.463C235.087 316.761 235.588 313.024 235.292 309.318C235.024 305.968 233.618 302.892 233.344 299.471C232.912 294.067 230.248 289.071 229.557 283.889C228.901 278.968 229.503 273.607 229.503 268.633C229.503 260.909 229.412 254.316 231.505 246.992C232.64 243.019 241.423 244.563 244.165 245.477C247.798 246.688 256.877 257.598 252.659 261.816C248.076 266.398 248.98 247.018 248.98 245.423C248.98 228.845 262.349 247.631 265.319 253.809C266.311 255.873 267.542 261.187 266.293 263.547C264.691 266.573 260.738 260.549 260.666 259.111C260.485 255.489 260.998 253.079 263.587 250.346C265.951 247.851 268.723 245.724 269.485 249.913C270.314 254.477 271.378 258.234 271.378 262.952C271.378 264.64 270.447 270.588 270.404 269.823C270.034 263.155 271.777 256.643 277.762 252.835C284.609 248.478 287.934 260.604 287.934 264.954C287.934 270.797 287.934 276.64 287.934 282.483C287.934 289.211 283.079 296.642 281.117 303.15C276.644 317.981 267.696 331.783 266.455 347.297C265.614 357.808 262.614 368.118 262.614 378.893" stroke="black" stroke-width="4" stroke-linecap="round"/>
<path d="M349.286 244.503C348.383 249.467 342.572 255.402 339.547 259.435C334.327 266.396 325.991 270.627 320.287 277.181C315.629 282.533 307.541 288.963 304.489 295.359C299.825 305.131 295.662 315.366 294.75 326.306" stroke="black" stroke-width="4" stroke-linecap="round"/>
<path d="M148.674 197.759C148.674 213.689 151.82 226.987 160.577 240.608C165.653 248.504 170.913 256.414 176.483 263.98C179.937 268.672 183.508 277.014 188.602 279.561" stroke="black" stroke-width="4" stroke-linecap="round"/>
<path d="M158.413 217.235C159.052 230.019 168.959 239.133 175.942 248.831C181.786 256.948 189.654 267.533 198.34 272.744" stroke="black" stroke-width="4" stroke-linecap="round"/>
<path d="M186.654 272.744C190.875 276.966 195.31 282.302 198.34 287.352" stroke="black" stroke-width="4" stroke-linecap="round"/>
<path d="M190.549 285.404C193.113 289.25 195.909 292.983 198.827 296.549C200.502 298.597 203.354 298.499 204.183 300.986" stroke="black" stroke-width="4" stroke-linecap="round"/>
<path d="M198.975 97.2651C193.4 105.628 189.917 115.838 186.558 125.244C183.596 133.537 183.414 141.629 183.414 150.315" stroke="black" stroke-width="4" stroke-linecap="round"/>
<path d="M145.218 160.925C152.582 160.786 159.938 159.736 167.342 159.471C171.687 159.316 175.997 158.803 180.349 158.803C183.307 158.803 186.306 159.203 189.073 158.096" stroke="black" stroke-width="4" stroke-linecap="round"/>
<path d="M184.829 145.364C182.83 146.422 181.875 148.372 179.877 149.451C178.05 150.437 175.983 151.045 174.219 152.123C172.773 153.006 167.221 160.2 165.888 159.904C163.905 159.463 171.2 147.432 172.411 146.111C173.615 144.798 175.385 143.638 177.009 142.928C179.392 141.885 173.643 143.976 172.961 144.264C167.484 146.576 161.702 151.996 157.282 155.974C156.234 156.917 154.638 159.432 153.038 159.432C150.468 159.432 158.674 150.176 159.05 149.765C166.408 141.738 176.769 137.862 184.436 130.195C186.645 127.986 187.712 127.082 184.514 129.96C177.547 136.23 169.187 140.979 162.037 147.093C159.494 149.267 157.727 152.392 155.121 154.402C152.073 156.753 153.65 152.934 154.531 151.612C160.76 142.269 171.131 134.455 180.349 128.388C181.483 127.641 188.093 123.614 183.257 126.266C177.888 129.21 172.198 131.545 167.185 135.108C160.04 140.184 154.249 147.208 146.947 152.123C146.058 152.722 144.786 153.13 144.118 154.009C144.068 154.074 143.538 155.476 143.253 155.109C141.92 153.395 148.909 145.63 149.894 144.264C156.319 135.351 165.791 128.666 173.668 121.157C180.017 115.107 187.685 111.592 195.085 107.207C198.028 105.463 203.27 101.509 206.756 101.509" stroke="black" stroke-width="4" stroke-linecap="round"/>
<path d="M147.34 169.413C147.194 173.504 145.402 177.311 144.864 181.399C144.429 184.709 143.803 187.999 143.803 191.341" stroke="black" stroke-width="4" stroke-linecap="round"/>
</svg>
